<?xml version="1.0" standalone="no"?>
<!DOCTYPE svg PUBLIC "-//W3C//DTD SVG 20010904//EN"
 "http://www.w3.org/TR/2001/REC-SVG-20010904/DTD/svg10.dtd">
<svg version="1.0" xmlns="http://www.w3.org/2000/svg"
 width="40px" height="40px" viewBox="0 0 588.000000 424.000000"
 preserveAspectRatio="xMidYMid meet">

<g transform="translate(0.000000,424.000000) scale(0.100000,-0.100000)"
fill="#000000" stroke="none">
<path d="M2267 3850 c-363 -46 -695 -188 -964 -411 -101 -85 -217 -211 -299
-326 -67 -92 -179 -306 -214 -408 -27 -76 -68 -250 -80 -335 -11 -80 -12 -376
0 -445 48 -298 141 -529 309 -765 57 -80 234 -265 316 -329 330 -262 703 -391
1128 -391 296 0 545 57 802 185 384 190 682 505 839 886 33 81 81 232 91 288
2 14 9 51 15 81 18 93 24 326 11 445 -40 368 -197 704 -456 973 -149 155 -229
219 -420 333 -141 84 -358 162 -560 199 -124 24 -406 34 -518 20z m510 -59
c198 -39 348 -91 512 -177 327 -172 586 -441 741 -766 51 -109 100 -247 119
-338 6 -30 14 -66 16 -80 32 -152 31 -397 0 -575 -22 -121 -97 -340 -157 -459
-52 -103 -177 -274 -277 -378 -270 -282 -600 -455 -991 -520 -100 -16 -453
-16 -555 0 -347 57 -675 218 -936 459 -68 64 -190 213 -251 308 -263 409 -330
916 -182 1380 157 496 570 909 1076 1079 134 44 228 65 413 90 78 11 375 -4
472 -23z"/>
<path d="M2318 3733 c-54 -59 -45 -112 32 -188 28 -27 50 -52 50 -56 0 -3 -44
-9 -97 -12 -310 -19 -598 -151 -823 -377 -52 -52 -119 -130 -148 -173 -107
-155 -198 -386 -209 -528 -5 -63 -4 -68 25 -100 26 -29 37 -34 76 -34 66 0
100 36 116 123 60 318 269 601 553 748 168 87 320 124 505 124 l106 0 -106
-107 c-73 -74 -108 -118 -112 -139 -10 -47 15 -100 57 -120 68 -32 84 -22 297
191 l195 195 0 45 0 45 -196 195 -195 195 -50 0 c-42 0 -55 -5 -76 -27z"/>
<path d="M3061 3194 c-34 -28 -47 -76 -33 -114 5 -14 51 -65 101 -115 173
-169 274 -355 317 -582 12 -67 15 -123 11 -233 -5 -154 -21 -233 -73 -360 -32
-81 -116 -223 -124 -213 -4 5 -22 67 -40 138 -41 157 -61 185 -135 185 -38 0
-52 -5 -76 -29 -42 -42 -38 -79 35 -351 58 -212 67 -237 95 -262 19 -17 43
-28 61 -28 16 0 138 29 272 65 216 58 246 69 271 95 41 45 38 101 -7 146 -40
40 -63 42 -159 15 -37 -11 -67 -16 -67 -12 0 3 16 36 35 72 45 86 100 252 120
363 19 113 19 318 0 432 -46 267 -175 514 -366 703 -41 41 -87 82 -104 92 -43
27 -97 24 -134 -7z"/>
<path d="M1205 2016 c-16 -7 -37 -22 -46 -32 -9 -11 -47 -133 -84 -272 -59
-228 -65 -257 -55 -288 16 -48 63 -77 113 -70 52 6 83 38 102 105 32 112 24
110 85 19 67 -103 200 -243 301 -318 151 -113 360 -202 549 -236 216 -39 507
-10 687 67 83 35 98 135 29 191 -28 23 -80 22 -149 -1 -198 -69 -429 -74 -635
-15 -283 81 -529 280 -656 532 -17 34 -22 52 -14 52 7 0 70 -16 140 -34 149
-40 185 -37 218 17 40 64 15 136 -55 162 -38 14 -484 135 -495 135 -3 -1 -18
-7 -35 -14z"/>
</g>
</svg>
