<svg width="24" height="24" viewBox="0 0 24 24" fill="none" xmlns="http://www.w3.org/2000/svg">
<path d="M11.158 12.8369C7.37097 12.8369 4.28882 9.95693 4.28882 6.41843C4.28882 2.87992 7.37097 0 11.158 0C14.945 0 18.0271 2.87992 18.0271 6.41843C18.0271 9.95693 14.945 12.8369 11.158 12.8369ZM11.158 1.67437C8.36252 1.67437 6.08077 3.80641 6.08077 6.41843C6.08077 9.03045 8.36252 11.1625 11.158 11.1625C13.9534 11.1625 16.2352 9.03045 16.2352 6.41843C16.2352 3.80641 13.9534 1.67437 11.158 1.67437Z" fill="black"/>
<path d="M0.895975 24.0003C0.406176 24.0003 0 23.6208 0 23.1631C0 18.3967 5.0055 14.5122 11.1579 14.5122C12.3645 14.5122 13.5471 14.6573 14.6939 14.9587C15.1718 15.0815 15.4467 15.5392 15.3153 15.9857C15.1838 16.4322 14.6939 16.6889 14.2162 16.5661C13.2366 16.3094 12.2092 16.1866 11.1579 16.1866C5.99705 16.1866 1.79195 19.3121 1.79195 23.1631C1.79195 23.6208 1.38578 24.0003 0.895975 24.0003Z" fill="black"/>
<path d="M18.3254 23.9996C16.3423 23.9996 14.4787 23.0173 13.4752 21.4211C12.9376 20.6174 12.6509 19.6686 12.6509 18.6974C12.6509 17.0677 13.4274 15.5608 14.7773 14.5562C15.7808 13.8083 17.0471 13.3953 18.3254 13.3953C21.4553 13.3953 23.9999 15.7729 23.9999 18.6974C23.9999 19.6686 23.7132 20.6174 23.1756 21.4322C22.8769 21.9011 22.4947 22.3252 22.0407 22.6824C21.0492 23.5308 19.7231 23.9996 18.3254 23.9996ZM18.3254 15.0696C17.4414 15.0696 16.6051 15.3487 15.9003 15.8733C14.9804 16.5542 14.4428 17.5924 14.4428 18.6974C14.4428 19.356 14.634 20.0035 15.0043 20.5616C15.6972 21.6555 16.9755 22.3252 18.3254 22.3252C19.2691 22.3252 20.1771 22.0015 20.87 21.4211C21.1806 21.1755 21.4434 20.8853 21.6345 20.5727C22.0168 20.0035 22.2079 19.356 22.2079 18.6974C22.2079 16.6994 20.4638 15.0696 18.3254 15.0696Z" fill="black"/>
<path d="M17.6431 20.6391C17.4161 20.6391 17.1891 20.561 17.0099 20.3935L15.8272 19.2885C15.4808 18.9648 15.4808 18.4288 15.8272 18.1051C16.1737 17.7814 16.7471 17.7814 17.0935 18.1051L17.667 18.641L19.5784 16.9889C19.9368 16.6763 20.5102 16.6988 20.8447 17.0336C21.1792 17.3685 21.1553 17.9043 20.7969 18.2169L18.2523 20.4158C18.0731 20.5609 17.8581 20.6391 17.6431 20.6391Z" fill="black"/>
</svg>
